<?xml version="1.0" encoding="UTF-8"?>
<svg id="_レイヤー_1" data-name="レイヤー_1" xmlns="http://www.w3.org/2000/svg" version="1.1" viewBox="0 0 167.01 54.57">
  <!-- Generator: Adobe Illustrator 30.1.0, SVG Export Plug-In . SVG Version: 2.1.1 Build 136)  -->
  <defs>
    <style>
      .st0 {
        fill: #040000;
      }
    </style>
  </defs>
  <path class="st0" d="M166.43,14.17c-.72-.26-1.26.18-1.5.64-.06.11-.13.27-.22.46-.51,1.06-1.56,3.28-4.11,6.27-.55.65-1.37,1.51-2.15,2.31-1.26,1.31-3.01,2.83-4.86,4.69.06-1.05.13-2.07.22-3.04.09-1.03.18-1.95.27-2.72.08-.77.16-1.4.22-1.88l.03-.29c.08-.59.15-1.14.27-1.72.01-.06.03-.13.04-.2.03-.17.06-.35.13-.48.18-.35.1-.76-.2-1.03-.18-.15-.4-.24-.65-.24h-.03c-.25,0-.49.11-.66.28-.2.19-.27.46-.33.69l-.02.05c-.18.68-.33,1.37-.47,2.03-.09.45-.19.9-.3,1.35-.36,1.53-.84,2.8-1.47,3.87-.69,1.18-1.47,1.78-2.3,1.78-.67,0-1.13-.2-1.42-.63-.3-.43-.45-1.04-.45-1.81s.08-1.52.24-2.17c.16-.66.34-1.23.53-1.7.19-.46.36-.82.53-1.08.12-.18.19-.29.22-.35.1-.15.16-.31.16-.49,0-.24-.09-.46-.27-.65-.19-.19-.43-.28-.72-.28-.35,0-.62.14-.81.41-.05.06-.13.18-.29.43-.19.31-.4.75-.62,1.3-.03.09-.07.18-.1.27,0,0,0,.01,0,.02-.16.42-.56,1.31-.77,1.73-.22.44-.45.86-.65,1.21-.35.6-.76,1.2-1.23,1.78-.47.58-.98,1.08-1.53,1.5-.54.41-1.09.62-1.65.62-.3,0-.54-.06-.72-.19-.19-.13-.33-.3-.43-.52-.1-.23-.18-.5-.21-.81-.04-.31-.06-.65-.06-.99,0-.28.01-.57.03-.87v-.18c.03-.25.05-.5.07-.75l.07-.86c.02-.26.03-.49.03-.69,0-.83-.2-1.53-.6-2.1-.41-.58-1.04-.87-1.89-.87-.42,0-.87.12-1.35.35-.47.23-.94.61-1.4,1.12-.45.52-.89,1.08-1.3,1.66-.43.61-.82,1.18-1.18,1.75-.39.62-.74,1.19-1.05,1.74-.22.39-.42.74-.59,1.07.03-.3.06-.63.09-1,.05-.62.11-1.25.17-1.88.06-.6.11-1.2.15-1.77.04-.55.06-.96.06-1.22,0-.35-.03-.7-.11-1.04-.07-.34-.18-.66-.34-.94-.16-.29-.37-.52-.63-.7-.27-.18-.59-.27-.98-.27-.64,0-1.28.38-1.92,1.13-.62.73-1.28,1.89-1.99,3.45-.14.27-.31.59-.51.97-.2.38-.44.77-.69,1.16-.26.4-.55.8-.87,1.2-.32.4-.65.75-.99,1.05-.34.3-.69.55-1.05.73-.35.18-.7.27-1.05.27-.54,0-.96-.17-1.27-.51-.31-.35-.56-.77-.71-1.25-.16-.48-.26-.97-.31-1.46-.05-.49-.08-.88-.09-1.16-.02-.23-.12-.43-.3-.61-.19-.18-.4-.27-.65-.27-.26,0-.49.08-.68.23-.19.15-.31.35-.34.57-.11.74-.29,1.38-.56,1.93-.27.54-.57.99-.89,1.34-.32.35-.66.61-1.01.78-.35.17-.65.25-.92.25-.37,0-.68-.07-.92-.2-.25-.14-.45-.31-.59-.53-.15-.22-.25-.47-.31-.74-.06-.28-.09-.55-.09-.82,0-.82.14-1.55.41-2.16.02-.04.04-.07.05-.1.01-.02.01-.04.02-.07.29-.59.65-1.1,1.06-1.5.44-.42.93-.73,1.45-.92.53-.2,1.03-.3,1.5-.3.31,0,.6.03.84.09.25.06.46.14.64.22.18.08.32.16.42.24.1.08.17.13.2.15.19.18.43.27.71.27.26,0,.49-.09.69-.28.19-.19.29-.4.29-.65,0-.23-.1-.45-.29-.66-.01-.01-.07-.06-.16-.13l-.1-.08c-.16-.13-.39-.27-.68-.41-.29-.15-.64-.28-1.05-.41-.41-.13-.87-.19-1.36-.19-.73,0-1.49.15-2.27.44-.78.29-1.5.74-2.15,1.32-.64.58-1.18,1.32-1.6,2.19-.15.32-.27.68-.37,1.04-.2.36-.42.73-.67,1.11-.27.42-.57.83-.9,1.25-.33.42-.67.79-1.04,1.12-.37.33-.75.59-1.15.79-.4.2-.81.3-1.22.3-.38,0-.69-.07-.91-.22-.22-.15-.39-.34-.49-.58-.1-.24-.17-.51-.2-.82-.03-.31-.05-.62-.05-.94,0-.76.04-1.41.12-1.96.08-.55.12-1.08.12-1.58,0-.32-.04-.67-.12-1.02-.08-.36-.22-.68-.42-.97-.2-.29-.48-.53-.83-.71-.35-.19-.79-.28-1.34-.28-.46,0-.99.15-1.59.45-.6.3-1.24.88-1.92,1.76-.24.3-.5.68-.79,1.15-.29.47-.59.97-.9,1.5-.31.53-.62,1.07-.92,1.61-.3.54-.57,1.04-.81,1.48.02-.42.04-.86.06-1.34s.05-.94.07-1.38c.02-.45.05-.86.07-1.25.02-.38.04-.7.04-.93,0-.42-.05-.81-.14-1.17-.1-.36-.24-.68-.43-.96-.19-.27-.44-.5-.73-.66-.29-.16-.65-.25-1.06-.25s-.87.11-1.36.33c-.49.22-.97.59-1.43,1.11-.27.31-.6.76-.99,1.36-.39.59-.79,1.22-1.2,1.89-.41.67-.79,1.33-1.17,1.99-.38.66-.68,1.21-.92,1.66.08-1.11.16-2.22.23-3.32.07-1.1.11-2.31.11-3.63,0-.3-.03-.6-.1-.91-.06-.31-.17-.59-.31-.84-.14-.25-.34-.45-.58-.6-.25-.16-.55-.23-.92-.23-.62,0-1.26.37-1.91,1.12-.69.79-1.55,2.09-2.13,2.94-.53.78-1.13,1.47-1.72,2.19-1.07,1.25-2.94,3.22-4.35,4.64.04-.84.12-1.68.19-2.52.09-1.03.18-1.95.27-2.72.04-.37.12-1.95.65-3.6.16-.49.07-1.02-.42-1.26s-1.09-.07-1.36.39c-.33.58-.51,1.35-.78,2.52-.47,1.99-.9,3.32-1.54,4.41-.69,1.18-1.47,1.78-2.3,1.78-.67,0-1.13-.2-1.42-.63-.3-.43-.45-1.04-.45-1.81s.08-1.52.24-2.17c.16-.66.34-1.23.53-1.7.19-.46.36-.82.53-1.08.12-.18.19-.29.22-.35.1-.15.16-.31.16-.49,0-.24-.09-.46-.27-.65-.19-.19-.43-.28-.72-.28-.35,0-.62.14-.81.41-.05.06-.13.18-.29.43-.19.31-.4.75-.62,1.3-.03.08-.06.16-.09.24,0,0,0,0,0,.01-.11.28-.71,1.56-.91,1.96-.05.1-.1.2-.15.3-.12.24-.24.48-.37.72-.35.6-.76,1.2-1.23,1.78-.47.58-.98,1.08-1.53,1.5-.54.41-1.09.62-1.65.62-.3,0-.54-.06-.72-.19-.19-.13-.33-.3-.43-.52-.1-.23-.18-.5-.21-.81-.04-.31-.06-.65-.06-.99,0-.28.01-.57.03-.87v-.18c.03-.25.05-.5.07-.75l.07-.86c.02-.26.03-.49.03-.69,0-.83-.2-1.53-.6-2.1-.41-.58-1.04-.87-1.89-.87-.42,0-.87.12-1.35.35-.47.23-.94.61-1.4,1.12-.45.52-.89,1.08-1.3,1.66-.43.61-.82,1.18-1.18,1.75-.39.62-.74,1.19-1.05,1.74-.22.39-.42.74-.59,1.07.03-.3.06-.63.09-1,.05-.62.11-1.25.17-1.88.06-.6.11-1.2.15-1.77.04-.55.06-.96.06-1.22,0-.35-.03-.7-.11-1.04-.07-.34-.18-.66-.34-.94-.16-.29-.37-.52-.63-.7-.27-.18-.59-.27-.98-.27-1.13,0-1.95.79-2.66,1.63-.32.39-.57.66-.92,1.05-.07.05-.14.1-.2.17-.5.59-1.14,1.28-1.89,1.99-.24.21-.52.45-.77.7-1.2,1.04-2.64,2.05-4.24,2.76-.13-1.42-.23-2.93-.29-4.5-.14-3.59-.05-6.73.03-10.06l.03-1.11c.06-2.36.22-4.2.6-6.87.16-.3.31-.59.48-.89.18-.33.26-.62.23-.89-.03-.37-.21-.66-.52-.88-.31-.22-.62-.31-.93-.29-.56.04-.94.29-1.16.75-.28.61-.39,1.25-.5,1.9-.42.73-.89,1.58-1.41,2.49-2,3.55-4.45,7.91-5.95,10.28-1.56-.95-3.09-1.53-4.62-1.75-1.5-.21-3.01.12-4.16.92-1.04.73-1.71,1.8-1.88,3.01-.28,1.98.72,4.31,2.67,6.24.33.33.69.64,1.07.93-3.26,3.28-6.67,4.94-10.18,4.94h-.05c-.16,0-.31,0-.47-.02-1.1-.07-2.41-.46-3.02-1.21-.79-.96-1.81-1.9-2.76-1.21-.44.32-.29,1.11,0,1.55,1.19,1.85,3.53,2.75,6.24,2.77h.06c4.15,0,8.12-1.92,11.83-5.71,3,1.74,6.88,2.66,10.8,2.47.6-.03,1.21-.1,1.81-.23.37,1.07.57,1.8.57,1.82,0,.02.01.03.02.05,0,.03.02.05.03.07.01.03.03.05.04.08.01.02.02.04.04.07.02.03.04.05.05.07.02.02.03.04.05.06.02.02.04.04.07.06.02.02.04.03.06.05.02.02.05.03.08.05.02.01.04.03.06.04.03.01.06.03.09.04.02,0,.05.02.07.03.03.01.07.02.1.03.02,0,.04.01.07.02.05,0,.11.01.17.01.05,0,.1,0,.16-.01.02,0,.03,0,.05-.01.01,0,.02,0,.03,0,.02,0,.04-.01.05-.02.04-.01.07-.02.1-.03.03-.01.06-.02.08-.04.03-.02.06-.03.09-.05.03-.02.05-.03.07-.05.03-.02.05-.04.07-.06.02-.02.04-.04.06-.07.02-.02.04-.05.06-.07.02-.02.03-.05.05-.08.02-.03.03-.05.04-.08.01-.03.02-.05.03-.08,0-.03.02-.06.03-.09,0-.03.01-.06.01-.09,0-.03,0-.06,0-.09,0-.03,0-.06,0-.1,0-.02,0-.04,0-.06-.11-.67-.21-1.38-.31-2.12,2.88-1.12,5.72-3.24,8.27-6.24.11-.13.18-.29.2-.45.26-.31.53-.62.8-.93.23-.26.48-.52.79-.56.06-.01.17-.01.25.03.28.15.24.75.23,1.11,0,.09,0,.17,0,.23,0,.27-.02.61-.05,1.01-.03.41-.07.84-.12,1.31l-.14,1.42c-.05.48-.09.92-.14,1.33-.05.41-.09.77-.12,1.06-.03.3-.05.5-.05.61,0,.49.15.88.44,1.15.29.27.68.41,1.16.41.35,0,.69-.11,1.02-.33.32-.22.65-.64.97-1.27.15-.31.37-.72.64-1.2.29-.51.59-1.02.89-1.53.32-.54.66-1.08,1.02-1.61.36-.54.72-1.03,1.07-1.46.34-.42.67-.77.99-1.04.3-.25.56-.38.78-.38.06,0,.17.04.34.22.13.14.2.44.2.88,0,.28-.01.57-.03.86-.02.26-.05.54-.09.9-.04.34-.07.62-.09.87-.02.27-.03.52-.03.75,0,.52.04,1.03.13,1.53.09.51.26.99.51,1.4.26.43.61.77,1.06,1.04.45.26,1.04.4,1.76.4.64,0,1.26-.15,1.84-.45.58-.3,1.12-.67,1.6-1.1.49-.44.95-.93,1.36-1.46.09-.12.17-.23.25-.34.14.84.45,1.53.94,2.08.69.76,1.65,1.14,2.86,1.14.73,0,1.42-.21,2.03-.63.48-.33.91-.74,1.27-1.24,0,.01,0,.03,0,.04-.03.1-.02.26-.02.39,0,.2-.01.4-.02.6,0,.11-.01.21-.02.32-.01.26-.04.54,0,.81,0,.3,0,.6,0,.9-2.03,2.05-4.02,4.16-5.12,5.77-.81,1.19-1.45,3.13-1.03,4.76.25.97.85,1.74,1.74,2.23.52.29,1.09.43,1.67.43.38,0,.77-.06,1.15-.19,1.27-.41,2.43-1.5,2.95-2.76.67-1.62.69-3.36.65-5v-.48c-.04-1.19-.07-2.59-.08-4.05.39-.4.79-.79,1.17-1.17,1.47-1.48,3.51-3.61,4.58-4.91,1.01-1.17,1.43-1.82,2.05-2.69.53-.73,1.11-1.74,1.48-2.26.38-.52.71-.74.81-.7.08.02.09.12.14.43.05.31.06.65.05,1.02-.03.7-.07,1.45-.11,2.25-.04.8-.08,1.56-.11,2.26-.03.71-.06,1.3-.08,1.79-.02.49-.04.76-.04.8,0,.43.11.78.33,1.04.22.26.56.39,1.03.39.32,0,.65-.11.98-.35.33-.23.67-.66,1-1.28.27-.52.59-1.1.97-1.76.38-.65.75-1.29,1.13-1.91.38-.62.75-1.19,1.09-1.7.34-.51.63-.9.85-1.17.29-.34.54-.57.75-.69.22-.12.41-.18.59-.18.19,0,.36.09.5.26.15.17.22.45.22.83,0,.18,0,.44-.02.78s-.03.73-.05,1.17c-.02.44-.04.89-.07,1.37-.03.48-.06.94-.07,1.38-.02.45-.03.85-.05,1.22-.02.37-.02.67-.02.89,0,.43.11.78.32,1.05.21.27.53.4.94.4.19,0,.37-.04.52-.11.16-.07.32-.2.49-.38.17-.18.34-.42.53-.74.18-.31.41-.7.68-1.18.48-.86.95-1.71,1.42-2.54.47-.83.93-1.57,1.37-2.23.45-.65.88-1.18,1.3-1.57s.83-.59,1.21-.59c.05,0,.12,0,.21.01.1,0,.19.05.3.13.1.08.19.22.26.41.07.19.11.48.11.85,0,.34-.04.82-.12,1.44-.08.62-.12,1.29-.12,2.02,0,.55.05,1.08.14,1.58.1.5.27.95.54,1.34s.61.69,1.05.92c.44.23,1.01.35,1.71.35.65,0,1.27-.15,1.86-.43.59-.29,1.14-.66,1.65-1.11.49-.44.95-.92,1.36-1.44.03.12.07.24.12.36.18.49.44.92.78,1.28.34.37.75.65,1.23.85.48.2,1.02.3,1.61.3.75,0,1.51-.25,2.26-.75.68-.45,1.28-1.06,1.79-1.81.29.73.72,1.36,1.29,1.85.63.55,1.42.83,2.35.83.65,0,1.28-.15,1.87-.44.58-.29,1.13-.65,1.63-1.09.5-.44.96-.93,1.37-1.45.4-.52.76-1.02,1.06-1.51.3-.47.55-.9.75-1.28.19-.37.32-.61.39-.73.56-1.25,1.02-2.13,1.37-2.62.35-.48.53-.67.62-.74.04.07.08.2.11.48.03.33.05.68.05,1.03,0,.27-.02.61-.05,1.01-.03.41-.07.84-.12,1.31l-.14,1.42c-.05.48-.09.92-.14,1.33-.05.41-.09.77-.12,1.06-.03.3-.05.5-.05.61,0,.49.15.88.44,1.15s.68.41,1.16.41c.35,0,.69-.11,1.02-.33.32-.22.65-.64.97-1.27.15-.31.37-.72.64-1.2.29-.51.59-1.02.89-1.53.32-.54.66-1.08,1.02-1.61.36-.54.72-1.03,1.07-1.46.34-.42.67-.77.99-1.04.3-.25.56-.38.78-.38.06,0,.17.04.34.22.13.14.2.44.2.88,0,.28-.01.57-.03.86-.02.26-.05.54-.09.9-.04.34-.07.62-.09.87-.02.27-.03.52-.03.75,0,.52.04,1.03.13,1.53.09.51.26.99.51,1.4.26.43.61.77,1.06,1.04.45.26,1.04.4,1.76.4.64,0,1.26-.15,1.84-.45.58-.3,1.12-.67,1.6-1.1.49-.44.95-.93,1.36-1.46.09-.12.17-.23.25-.34.14.84.45,1.53.94,2.08.69.76,1.65,1.14,2.86,1.14.73,0,1.42-.21,2.03-.63.5-.33.93-.76,1.3-1.28-.04.53-.07,2.12-.02,3.11-2.03,2.05-4.02,4.16-5.12,5.77-.81,1.19-1.45,3.13-1.03,4.76.25.97.85,1.74,1.74,2.23.52.29,1.09.43,1.67.43.38,0,.77-.06,1.15-.19,1.27-.41,2.43-1.5,2.95-2.76.67-1.62.69-3.36.65-5v-.48c-.04-1.19-.06-2.09-.07-3.55.39-.4,1.72-1.76,2.1-2.15l.32-.3c.54-.51,1.15-1.08,1.65-1.56l.06-.06c.92-.9,3.17-3.16,4.35-4.53,3.11-3.64,4.61-6.52,4.81-7.03.19-.46.12-1.23-.5-1.46ZM30.94,6.85c-.07.96-.12,1.9-.15,2.93l-.03,1.11c-.09,3.36-.17,6.53-.03,10.17.02.56.05,1.11.08,1.66-.65-1.16-1.41-2.29-2.29-3.22-1.09-1.16-2.16-2.14-3.22-2.95,1.4-2.2,3.68-6.22,5.64-9.71ZM17.15,22.54c-1.54-1.52-2.34-3.27-2.14-4.7.1-.71.48-1.31,1.09-1.74.57-.4,1.29-.61,2.05-.61.19,0,.39.01.59.04,1.26.18,2.55.68,3.88,1.5-.95,1.46-1.94,2.95-2.99,4.36-.51.69-1.03,1.34-1.56,1.94-.33-.26-.64-.52-.93-.81ZM29.1,26.47c-3.41.16-6.76-.6-9.37-2.04.53-.61,1.05-1.26,1.56-1.95,1.04-1.4,2.01-2.86,2.95-4.29.9.71,1.81,1.57,2.76,2.57,1.44,1.53,2.56,3.72,3.33,5.59-.4.07-.81.12-1.23.13ZM67.56,39.64c-.31.75-1.06,1.47-1.78,1.71-.43.14-.83.11-1.2-.1-.43-.24-.7-.59-.83-1.09-.27-1.06.19-2.5.78-3.37.77-1.13,2.06-2.57,3.5-4.07.01.76.03,1.48.05,2.13v.48c.05,1.46.03,3-.51,4.31ZM151.25,39.64c-.31.75-1.06,1.47-1.78,1.71-.43.14-.83.11-1.2-.1-.43-.24-.7-.59-.83-1.09-.27-1.06.19-2.5.78-3.37.77-1.13,1.99-2.52,3.5-3.99.01.76.03,1.4.04,2.06v.48c.05,1.46.03,3-.51,4.31Z"/>
  <g>
    <path class="st0" d="M23.2,49.14c0,.77-.27,1.42-.81,1.95-.53.53-1.19.79-1.98.79s-1.49-.25-2.01-.75c-.52-.5-.78-1.13-.78-1.9s.27-1.43.81-1.95c.54-.52,1.22-.78,2.04-.78s1.45.25,1.96.74c.51.49.76,1.12.76,1.91ZM22,49.08c0-.49-.14-.87-.42-1.15-.28-.29-.65-.44-1.11-.44s-.87.16-1.18.49c-.31.33-.47.74-.47,1.24s.15.9.44,1.21c.29.31.67.47,1.14.47s.85-.17,1.15-.51c.3-.34.46-.77.46-1.3Z"/>
    <path class="st0" d="M26.05,46.66l-.05.47c.47-.39.94-.59,1.42-.59s.89.14,1.19.41c.29.28.43.65.43,1.13,0,.26-.02.57-.06.92l-.34,2.72h-1.18l.37-2.97c.01-.11.02-.21.03-.3s0-.16,0-.23c0-.46-.25-.69-.74-.69-.3,0-.57.09-.78.28-.18.15-.31.33-.4.54-.05.11-.09.24-.12.39-.03.16-.06.34-.09.54l-.3,2.44h-1.19l.62-5.06h1.18Z"/>
    <path class="st0" d="M32.6,42.65l-1.11,9.07h-1.19l1.12-9.07h1.18Z"/>
    <path class="st0" d="M35,46.66l-.62,5.06h-1.19l.62-5.06h1.19ZM35.37,44.26c0,.17-.06.32-.19.45s-.28.19-.45.19-.33-.06-.46-.19c-.13-.14-.19-.29-.19-.47s.06-.32.18-.45.27-.19.45-.19.33.07.46.2c.13.13.2.28.2.46Z"/>
    <path class="st0" d="M37.9,46.66l-.05.47c.47-.39.94-.59,1.42-.59s.89.14,1.19.41c.29.28.43.65.43,1.13,0,.26-.02.57-.06.92l-.34,2.72h-1.18l.37-2.97c.01-.11.02-.21.03-.3s0-.16,0-.23c0-.46-.25-.69-.74-.69-.3,0-.57.09-.78.28-.18.15-.31.33-.4.54-.05.11-.09.24-.12.39-.03.16-.06.34-.09.54l-.3,2.44h-1.19l.62-5.06h1.18Z"/>
    <path class="st0" d="M43.36,49.61c0,.37.13.68.39.92.26.24.59.36,1,.36.55,0,.98-.21,1.28-.62l.89.49c-.31.42-.62.7-.95.87-.33.17-.74.25-1.23.25-.78,0-1.41-.23-1.87-.69s-.7-1.08-.7-1.85.26-1.49.77-2.03c.51-.54,1.15-.81,1.93-.81s1.34.24,1.78.73c.44.49.66,1.15.66,1.97,0,.09,0,.23-.02.42h-3.91ZM46.08,48.66c-.13-.78-.56-1.17-1.29-1.17-.7,0-1.15.39-1.36,1.17h2.66Z"/>
    <path class="st0" d="M54.23,42.65l-1.11,9.07h-1.19l1.12-9.07h1.18Z"/>
    <path class="st0" d="M60.37,46.66l-.62,5.06h-1.19l.07-.55c-.51.44-1.03.67-1.58.67-.67,0-1.21-.23-1.64-.68s-.63-1.04-.63-1.77c0-.83.24-1.52.72-2.05.49-.53,1.12-.8,1.88-.8.36,0,.67.06.92.18.26.12.52.32.79.61l.08-.67h1.19ZM58.93,49.05c0-.45-.13-.81-.39-1.09-.26-.28-.59-.42-1-.42-.44,0-.82.17-1.12.52-.3.35-.45.78-.45,1.29,0,.44.13.81.38,1.09s.57.42.97.42c.44,0,.81-.18,1.13-.53.32-.36.48-.79.48-1.28Z"/>
    <path class="st0" d="M65.26,47.22l-.67.67c-.31-.28-.61-.42-.87-.42-.18,0-.33.05-.45.15-.12.1-.18.23-.18.38s.05.27.15.37c.1.1.31.24.63.42.45.25.76.49.91.7.16.21.25.48.25.81,0,.48-.17.86-.5,1.15-.34.29-.78.43-1.33.43-.74,0-1.35-.33-1.84-1l.78-.54c.32.38.66.57,1.02.57.2,0,.37-.05.49-.16s.19-.25.19-.42c0-.15-.05-.27-.16-.37-.05-.05-.14-.11-.26-.19s-.3-.18-.51-.3c-.38-.21-.64-.42-.79-.62-.15-.21-.22-.47-.22-.77,0-.46.17-.84.5-1.14s.76-.45,1.28-.45c.57,0,1.1.24,1.58.72Z"/>
    <path class="st0" d="M67.51,49.61c0,.37.13.68.39.92.26.24.59.36,1,.36.55,0,.98-.21,1.28-.62l.89.49c-.31.42-.62.7-.95.87-.33.17-.74.25-1.23.25-.78,0-1.41-.23-1.87-.69s-.7-1.08-.7-1.85.26-1.49.77-2.03c.51-.54,1.15-.81,1.93-.81s1.34.24,1.78.73c.44.49.66,1.15.66,1.97,0,.09,0,.23-.02.42h-3.91ZM70.23,48.66c-.13-.78-.56-1.17-1.29-1.17-.7,0-1.15.39-1.36,1.17h2.66Z"/>
    <path class="st0" d="M74.3,46.66l-.05.43c.4-.38.81-.57,1.21-.57.36,0,.68.13.98.39l-.76.98c-.22-.19-.44-.28-.65-.28-.15,0-.28.03-.4.09-.11.06-.21.15-.3.28s-.15.29-.21.49-.1.44-.13.72l-.31,2.52h-1.19l.62-5.06h1.19Z"/>
    <path class="st0" d="M84.66,47.15l-.15,1.21c-.24-.31-.48-.53-.7-.67-.22-.13-.48-.2-.77-.2-.45,0-.82.17-1.11.5s-.43.76-.43,1.28c0,.49.14.88.41,1.18.28.3.63.45,1.07.45s.85-.18,1.3-.54l-.16,1.25c-.46.19-.89.28-1.31.28-.74,0-1.34-.24-1.81-.72-.46-.48-.69-1.11-.69-1.88s.25-1.45.75-1.98c.5-.53,1.12-.8,1.87-.8.61,0,1.19.22,1.74.65Z"/>
    <path class="st0" d="M90.43,46.66l-.36,2.94c-.03.25-.06.47-.11.65s-.09.34-.14.47c-.1.24-.27.45-.5.64-.4.31-.93.47-1.58.47s-1.12-.16-1.49-.48c-.37-.32-.56-.75-.56-1.29,0-.08,0-.18.01-.29s.02-.24.04-.38l.33-2.73h1.19l-.35,2.84c-.01.12-.03.23-.03.32,0,.09-.01.17-.01.23,0,.53.31.8.94.8.34,0,.59-.09.75-.26s.27-.48.32-.92l.37-3h1.18Z"/>
    <path class="st0" d="M93.52,47.76l-.49,3.96h-1.19l.49-3.96h-.67l.13-1.1h.67l.29-2.35h1.19l-.29,2.35h1.1l-.13,1.1h-1.1Z"/>
    <path class="st0" d="M97.41,47.76l-.49,3.96h-1.19l.49-3.96h-.67l.13-1.1h.67l.29-2.35h1.19l-.29,2.35h1.1l-.13,1.1h-1.1Z"/>
    <path class="st0" d="M101.06,46.66l-.62,5.06h-1.19l.62-5.06h1.19ZM101.43,44.26c0,.17-.06.32-.19.45s-.28.19-.45.19-.33-.06-.46-.19c-.13-.14-.19-.29-.19-.47s.06-.32.18-.45.27-.19.45-.19.33.07.46.2c.13.13.2.28.2.46Z"/>
    <path class="st0" d="M103.96,46.66l-.05.47c.47-.39.94-.59,1.42-.59s.89.14,1.19.41c.29.28.43.65.43,1.13,0,.26-.02.57-.06.92l-.34,2.72h-1.18l.37-2.97c.01-.11.02-.21.03-.3,0-.09,0-.16,0-.23,0-.46-.25-.69-.74-.69-.3,0-.57.09-.78.28-.18.15-.31.33-.4.54-.05.11-.09.24-.12.39-.03.16-.06.34-.09.54l-.3,2.44h-1.19l.62-5.06h1.18Z"/>
    <path class="st0" d="M113.88,46.66l-.62,5.09c-.04.3-.08.57-.13.79-.05.23-.1.42-.16.57-.13.31-.31.59-.56.81-.48.43-1.1.64-1.87.64s-1.43-.21-1.92-.62c-.25-.21-.43-.44-.53-.71-.1-.24-.15-.59-.15-1.03h1.15c.03.48.15.82.37,1.04.21.22.55.32,1,.32.49,0,.86-.13,1.11-.39.25-.26.42-.67.48-1.24l.09-.69c-.5.38-1.03.57-1.58.57-.69,0-1.25-.23-1.7-.7-.45-.48-.67-1.08-.67-1.79,0-.81.26-1.47.78-2,.52-.53,1.18-.8,1.96-.8.38,0,.68.06.91.17.25.11.52.3.79.59l.08-.63h1.19ZM112.52,49.06c0-.46-.14-.83-.42-1.11-.28-.28-.64-.42-1.1-.42s-.86.17-1.17.52c-.31.34-.46.77-.46,1.28,0,.45.13.82.4,1.11.27.28.62.41,1.06.41.49,0,.89-.17,1.21-.5.32-.34.48-.77.48-1.28Z"/>
    <path class="st0" d="M122.17,47.22l-.67.67c-.31-.28-.61-.42-.87-.42-.18,0-.33.05-.45.15-.12.1-.18.23-.18.38s.05.27.15.37c.1.1.31.24.63.42.45.25.76.49.91.7.16.21.25.48.25.81,0,.48-.17.86-.5,1.15-.34.29-.78.43-1.33.43-.74,0-1.35-.33-1.84-1l.78-.54c.32.38.66.57,1.02.57.2,0,.37-.05.49-.16.12-.11.19-.25.19-.42,0-.15-.05-.27-.16-.37-.05-.05-.14-.11-.26-.19s-.3-.18-.51-.3c-.38-.21-.64-.42-.79-.62-.15-.21-.22-.47-.22-.77,0-.46.17-.84.5-1.14s.76-.45,1.28-.45c.57,0,1.1.24,1.58.72Z"/>
    <path class="st0" d="M124.2,49.61c0,.37.13.68.39.92.26.24.59.36,1,.36.55,0,.98-.21,1.28-.62l.89.49c-.31.42-.62.7-.95.87-.33.17-.74.25-1.23.25-.78,0-1.41-.23-1.87-.69s-.7-1.08-.7-1.85.26-1.49.77-2.03c.51-.54,1.15-.81,1.93-.81s1.34.24,1.78.73c.44.49.66,1.15.66,1.97,0,.09,0,.23-.02.42h-3.91ZM126.92,48.66c-.13-.78-.56-1.17-1.29-1.17-.7,0-1.15.39-1.36,1.17h2.66Z"/>
    <path class="st0" d="M130.99,46.66l-.05.43c.4-.38.81-.57,1.21-.57.36,0,.68.13.98.39l-.76.98c-.22-.19-.44-.28-.65-.28-.15,0-.28.03-.4.09-.11.06-.21.15-.3.28-.08.13-.15.29-.21.49s-.1.44-.13.72l-.31,2.52h-1.19l.62-5.06h1.19Z"/>
    <path class="st0" d="M138.76,46.66l-3.48,5.71-1.8-5.71h1.23l.87,3.23,1.81-3.23h1.36Z"/>
    <path class="st0" d="M140.75,46.66l-.62,5.06h-1.19l.62-5.06h1.19ZM141.12,44.26c0,.17-.06.32-.19.45s-.28.19-.45.19-.33-.06-.46-.19c-.13-.14-.19-.29-.19-.47s.06-.32.18-.45.27-.19.45-.19.33.07.46.2c.13.13.2.28.2.46Z"/>
    <path class="st0" d="M146.17,47.15l-.15,1.21c-.24-.31-.48-.53-.7-.67-.22-.13-.48-.2-.77-.2-.45,0-.82.17-1.11.5s-.43.76-.43,1.28c0,.49.14.88.41,1.18.28.3.63.45,1.07.45s.85-.18,1.3-.54l-.16,1.25c-.46.19-.89.28-1.31.28-.74,0-1.34-.24-1.81-.72-.46-.48-.69-1.11-.69-1.88s.25-1.45.75-1.98c.5-.53,1.12-.8,1.87-.8.61,0,1.19.22,1.74.65Z"/>
    <path class="st0" d="M148.21,49.61c0,.37.13.68.39.92.26.24.59.36,1,.36.55,0,.98-.21,1.28-.62l.89.49c-.31.42-.62.7-.95.87-.33.17-.74.25-1.23.25-.78,0-1.41-.23-1.87-.69s-.7-1.08-.7-1.85.26-1.49.77-2.03c.51-.54,1.15-.81,1.93-.81s1.34.24,1.78.73c.44.49.66,1.15.66,1.97,0,.09,0,.23-.02.42h-3.91ZM150.93,48.66c-.13-.78-.56-1.17-1.29-1.17-.7,0-1.15.39-1.36,1.17h2.66Z"/>
  </g>
</svg>