<?xml version="1.0" encoding="UTF-8"?>
<svg id="_レイヤー_1" data-name="レイヤー_1" xmlns="http://www.w3.org/2000/svg" version="1.1" viewBox="0 0 400.97 27.55">
  <!-- Generator: Adobe Illustrator 30.1.0, SVG Export Plug-In . SVG Version: 2.1.1 Build 136)  -->
  <defs>
    <style>
      .st0 {
        fill: #231815;
      }
    </style>
  </defs>
  <g>
    <path class="st0" d="M151.83,26l-.91-2.27h0s-9.03-22.48-9.03-22.48c-.3-.75-1.03-1.25-1.84-1.25h-2.74c-.81,0-1.54.49-1.84,1.25l-9.94,24.75c-.3.75.25,1.56,1.05,1.56h2.98c.46,0,.88-.28,1.05-.71l7.77-19.4c.09-.24.43-.24.53,0l5.25,13.07c.08.19-.06.39-.27.39h-6.6l-1.93,4.79h10.68c.12,0,.22.07.27.18l.39.97c.17.43.59.71,1.05.71h3.02c.8,0,1.35-.81,1.05-1.56Z"/>
    <path class="st0" d="M179.6,11.23c-.13-.07-.19-.22-.12-.36.87-1.89,1.07-4.1-.01-6.33C178.09,1.7,175.11,0,171.95,0h-8.19c-.46,0-.86.28-1.03.67,0,0,0,0,0,0,0,.01,0,.03-.01.04-.05.12-.08.25-.08.39v25.31c0,.63.51,1.13,1.13,1.13h3.02c.63,0,1.13-.51,1.13-1.13V5.39c0-.16.13-.28.28-.28h4.25c1.59,0,2.85,1.45,2.53,3.1-.24,1.23-1.39,2.06-2.64,2.06h-.11v5.16h3.48c1.9,0,3.48,1.53,3.48,3.48s-1.58,3.48-3.48,3.48h-3.48v5.16h3.48c4.74,0,8.64-3.85,8.64-8.64,0-3.38-1.94-6.27-4.77-7.68Z"/>
    <path class="st0" d="M5.43,5.71v7.81c0,.16.13.28.28.28h8.87c.63,0,1.13.51,1.13,1.13v3.16c0,.63-.51,1.13-1.13,1.13H5.71c-.16,0-.28.13-.28.28v6.91c0,.63-.51,1.13-1.13,1.13H1.13c-.63,0-1.13-.51-1.13-1.13V1.13C0,.51.51,0,1.13,0h16.7C18.47,0,18.97.51,18.97,1.13v3.16c0,.63-.51,1.13-1.13,1.13H5.71c-.16,0-.28.13-.28.28Z"/>
    <path class="st0" d="M117.78,23.26v3.16c0,.63-.51,1.13-1.13,1.13h-16.71c-.63,0-1.13-.51-1.13-1.13V1.13C98.81.51,99.31,0,99.94,0h3.16c.63,0,1.13.51,1.13,1.13v20.71c0,.16.13.28.28.28h12.13c.63,0,1.13.51,1.13,1.13Z"/>
    <path class="st0" d="M53.68,26l-.91-2.27h0S43.75,1.25,43.75,1.25c-.3-.75-1.03-1.25-1.84-1.25h-2.74c-.81,0-1.54.49-1.84,1.25l-9.94,24.75c-.3.75.25,1.56,1.05,1.56h2.98c.46,0,.88-.28,1.05-.71l7.77-19.4c.09-.24.43-.24.53,0l5.25,13.07c.08.19-.06.39-.27.39h-6.6l-1.93,4.79h10.68c.12,0,.22.07.27.18l.39.97c.17.43.59.71,1.05.71h3.02c.8,0,1.35-.81,1.05-1.56Z"/>
    <path class="st0" d="M81.99,11.23c-.13-.07-.19-.22-.12-.36.87-1.89,1.07-4.1-.01-6.33-1.37-2.84-4.35-4.54-7.51-4.54h-8.19c-.46,0-.86.28-1.03.67,0,0,0,0,0,0,0,.01,0,.03-.01.04-.05.12-.08.25-.08.39v25.31c0,.63.51,1.13,1.13,1.13h3.02c.63,0,1.13-.51,1.13-1.13V5.39c0-.16.13-.28.28-.28h4.25c1.59,0,2.85,1.45,2.53,3.1-.24,1.23-1.39,2.06-2.64,2.06h-.11v5.16h3.48c1.9,0,3.48,1.53,3.48,3.48s-1.58,3.48-3.48,3.48h-3.48v5.16h3.48c4.74,0,8.64-3.85,8.64-8.64,0-3.38-1.94-6.27-4.77-7.68Z"/>
  </g>
  <g>
    <path class="st0" d="M271.8,25.92l-.91-2.26h0s-8.97-22.35-8.97-22.35c-.3-.75-1.03-1.24-1.83-1.24h-2.73c-.81,0-1.53.49-1.83,1.24l-9.88,24.6c-.3.74.25,1.55,1.05,1.55h2.97c.46,0,.87-.28,1.05-.71l7.72-19.29c.09-.24.43-.24.52,0l5.22,12.99c.08.19-.06.39-.27.39h-6.56l-1.92,4.77h10.62c.12,0,.22.07.27.18l.39.96c.17.43.59.71,1.05.71h3c.8,0,1.34-.81,1.05-1.55Z"/>
    <path class="st0" d="M339.51,25.92l-.91-2.26h0s-8.97-22.35-8.97-22.35c-.3-.75-1.03-1.24-1.83-1.24h-2.73c-.81,0-1.53.49-1.83,1.24l-9.88,24.6c-.3.74.25,1.55,1.05,1.55h2.97c.46,0,.87-.28,1.05-.71l7.72-19.29c.09-.24.43-.24.52,0l5.22,12.99c.08.19-.06.39-.27.39h-6.56l-1.92,4.77h10.62c.12,0,.22.07.27.18l.39.96c.17.43.59.71,1.05.71h3c.8,0,1.34-.81,1.05-1.55Z"/>
    <path class="st0" d="M400.88,25.92l-.91-2.26h0s-8.97-22.35-8.97-22.35c-.3-.75-1.03-1.24-1.83-1.24h-2.73c-.81,0-1.53.49-1.83,1.24l-9.88,24.6c-.3.74.25,1.55,1.05,1.55h2.97c.46,0,.87-.28,1.05-.71l7.72-19.29c.09-.24.43-.24.52,0l5.22,12.99c.08.19-.06.39-.27.39h-6.56l-1.92,4.77h10.62c.12,0,.22.07.27.18l.39.96c.17.43.59.71,1.05.71h3c.8,0,1.34-.81,1.05-1.55Z"/>
    <path class="st0" d="M234.66,1.26v25.08c0,.62-.5,1.13-1.13,1.13h-3.13c-.62,0-1.13-.5-1.13-1.13v-4.88c0-.16-.13-.28-.28-.28h-12.03c-.16,0-.28.13-.28.28v4.88c0,.62-.5,1.13-1.13,1.13h-3.13c-.62,0-1.13-.5-1.13-1.13V1.26c0-.62.5-1.13,1.13-1.13h3.13c.62,0,1.13.5,1.13,1.13v14.25c0,.16.13.28.28.28h12.03c.16,0,.28-.13.28-.28V1.26c0-.62.5-1.13,1.13-1.13h3.13c.62,0,1.13.5,1.13,1.13Z"/>
    <path class="st0" d="M302.32,27.47h-4.12c-.33,0-.63-.14-.85-.38l-6-6.86c-.12-.14-.34-.13-.45.03l-4.44,6.71c-.21.32-.56.51-.94.51h-2.17c-.62,0-1.13-.5-1.13-1.13V1.26c0-.62.5-1.13,1.13-1.13h3.13c.62,0,1.13.5,1.13,1.13v13.77c0,.14.18.19.26.08l9.49-14.46c.21-.32.56-.51.94-.51h3.63c.9,0,1.43.99.94,1.74l-8.62,13.18c-.07.11-.06.24.02.34l8.89,10.2c.64.73.12,1.87-.85,1.87Z"/>
    <path class="st0" d="M368.35,5.47h-7.54c-.16,0-.28.13-.28.28v20.59c0,.62-.5,1.13-1.13,1.13h-3.13c-.62,0-1.13-.5-1.13-1.13V5.75c0-.16-.13-.28-.28-.28h-7.68c-.62,0-1.13-.5-1.13-1.13V1.21c0-.62.5-1.13,1.13-1.13h21.17c.62,0,1.13.5,1.13,1.13v3.13c0,.62-.5,1.13-1.13,1.13Z"/>
  </g>
</svg>