<?xml version="1.0" encoding="UTF-8"?>
<svg id="_レイヤー_1" data-name="レイヤー_1" xmlns="http://www.w3.org/2000/svg" version="1.1" viewBox="0 0 908.09 294.26">
  <!-- Generator: Adobe Illustrator 30.1.0, SVG Export Plug-In . SVG Version: 2.1.1 Build 136)  -->
  <defs>
    <style>
      .st0 {
        fill: #231815;
      }
    </style>
  </defs>
  <g>
    <path class="st0" d="M802.77,240.84h-.17c-.4,0-.8.03-1.24.08-.47.04-.98.09-1.53.09-5.52-.45-5.52-5.9-5.52-22.09,0-7.87.12-16.01.25-25.44.06-3.94.29-6.71.83-12.09.21-2.12-.08-4.44-1.36-6.16-1.42-1.9-3.53-2.31-5.74-2.24-2.52.09-4.36,1.57-5.12,3.95-.81,2.53-.15,5.16.08,7.72.23,2.53.33,5.13.36,7.68.1,9.91,0,19.82,0,29.72-.49,13.35-12.79,21.61-23.91,21.61-8.27,0-17.42-4.94-18.26-18.8-.16-3.13-.33-10.75-.33-19.25,0-3.06.04-6.24.08-9.36.04-2.99.08-5.92.08-8.6,0-8.45-5.42-13.49-14.5-13.49h-4.32c-3.58,0-5.51,2.84-5.51,5.51s1.65,5.18,5.51,5.18c1.02,0,1.51-.06,1.9-.11.24-.03.45-.06.76-.06,1.79,0,5.13,0,5.13,6.79,0,25.16.12,31.62.15,33.74v.86c.55,20.38,15.5,27.61,28.14,27.61,10.6,0,20.56-4.5,25.93-11.68.06-.07.13-.13.2-.19,1.97,8.04,6.85,9.87,14.11,10.21.98,0,1.59-.05,2.17-.09.49-.04.96-.08,1.69-.08,3.53-.2,5.15-3,5.15-5.51,0-2.74-1.72-5.51-5.02-5.51"/>
    <path class="st0" d="M251.2,128.11c-35.37,0-61.05,26.44-61.05,62.87s25.1,62.55,61.05,62.55,61.05-25.72,61.05-62.55-25.67-62.87-61.05-62.87M251.2,242.83c-28.4,0-49.02-21.8-49.02-51.85s20.62-52.34,49.02-52.34,48.85,22.01,48.85,52.34-20.55,51.85-48.85,51.85"/>
    <path class="st0" d="M410.37,240.84h-.17c-.4,0-.8.03-1.24.08-.47.04-.98.09-1.53.09-5.51-.45-5.51-5.9-5.51-22.09,0-7.87.12-16.01.25-25.44.05-3.94.29-6.71.83-12.09.21-2.12-.07-4.44-1.35-6.16-1.42-1.9-3.53-2.31-5.74-2.24-2.52.09-4.36,1.57-5.12,3.95-.81,2.53-.15,5.16.08,7.72.23,2.53.33,5.13.36,7.68.09,9.91,0,19.82,0,29.72-.49,13.35-12.79,21.61-23.92,21.61-8.27,0-17.42-4.94-18.26-18.8-.16-3.13-.33-10.75-.33-19.25,0-3.06.04-6.24.09-9.36.04-2.99.08-5.92.08-8.6,0-8.45-5.42-13.49-14.5-13.49h-4.32c-3.58,0-5.51,2.84-5.51,5.51s1.65,5.18,5.51,5.18c1.02,0,1.51-.06,1.9-.11.24-.03.45-.06.76-.06,1.79,0,5.12,0,5.12,6.79,0,25.16.12,31.62.15,33.74v.86c.55,20.38,15.5,27.61,28.14,27.61,10.6,0,20.56-4.5,25.93-11.68.06-.07.13-.13.19-.19,1.97,8.04,6.86,9.87,14.11,10.21.98,0,1.59-.05,2.17-.09.49-.04.96-.08,1.69-.08,3.53-.2,5.15-3,5.15-5.51,0-2.74-1.73-5.51-5.02-5.51"/>
    <path class="st0" d="M477.4,172.67c-10.24.36-19.71,4.52-24.08,10.51-.09.09-.21.19-.34.25-1.03-5.8-6.18-9.26-13.8-9.26h-4.66c-3.69,0-5.35,2.77-5.35,5.51s1.78,5.35,5.18,5.35c.02,0,.2,0,.22,0l.58-.04q1.54-.12,2.83-.12c3.34.14,4.82,2.28,4.82,6.96v12.97c0,9.29-.12,17.91-.25,27.9l-.08,6.18c0,.69-.19,2.3-1.97,2.3-1.39,0-2.27-.05-3.11-.09-.77-.04-1.51-.08-2.72-.08-3.62,0-5.51,2.69-5.51,5.35,0,.66.15,2.35,1.5,3.64.95.91,2.24,1.38,3.84,1.38.12,0,.25,0,.37,0,3.8-.16,8.3-.33,12.77-.33s9.4.17,13.61.33h.19c3.58,0,5.52-2.67,5.52-5.18,0-1.46-.57-2.79-1.59-3.75-1.08-1.02-2.54-1.53-4.15-1.43-2.3.16-2.97.16-5.44.16-1.57,0-2.13-1.19-2.13-2.3,0-4.23-.04-8.31-.09-12.16-.04-3.42-.08-6.65-.08-9.62,0-3.7.05-7,.1-9.73.03-1.94.06-3.59.06-4.89.32-11.8,12.49-19.11,23.58-19.11h1c3.47,0,5.35-2.75,5.35-5.34,0-1.58-.53-2.91-1.53-3.87-1.11-1.06-2.78-1.58-4.67-1.48"/>
    <path class="st0" d="M592.17,187.05c-4.44-2.38-10.24-5.2-15.85-7.93-2.97-1.44-5.82-2.83-8.28-4.06-8.81-4.26-14.07-11.36-14.07-19,0-8.83,7.53-17.76,21.92-17.76,16.56,0,23.92,10.58,23.92,14.6q0,1.1-.07,2.13l-.1,1.53v.33c0,3.55,2.83,5.01,5.56,5.18,2.85-.19,5.66-1.98,5.47-5.54l-.11-3.02c-.13-3.57-.23-6.4-.23-9.26,0-2.54.12-5.21.26-8.3l.08-2.01c0-3.29-2.78-5.02-5.51-5.02-2.1,0-4.55,1.02-5.18,3.9-.05.28-.07.63-.09,1-.02.36-.06.97-.15,1.3-.07-.04-.12-.07-.15-.08-5.76-4.44-14.02-6.79-23.87-6.79-21.74,0-33.12,14.23-33.12,28.29,0,11.62,7.61,22.17,20.35,28.23,6.79,3.18,14.38,7.09,23.9,12.28,10.82,6.01,16.77,14.47,16.77,23.84,0,10.6-8.67,21.42-25.24,21.59-20.59,0-29.73-13.72-29.73-18.93v-3.32c0-3.68-2.95-5.35-5.68-5.35-1.72,0-3.08.49-4.05,1.46-1.3,1.31-1.48,3.08-1.47,4.07.16,4.24.33,9.04.33,13.94,0,3.6-.15,7.32-.31,11.26l-.03,1.04c0,3.68,2.95,5.35,5.68,5.35,2.35,0,4.98-1.29,5.18-4.11.12-1.04.14-2.2.15-3.23.01-.86.02-1.96.13-2.56,0,0,.01.01.02.02,6.53,7.22,17.15,11.37,29.11,11.37,24.75,0,38.1-16.89,38.1-32.78,0-13.29-8.62-25.57-23.64-33.7"/>
    <path class="st0" d="M667.21,172.5c-22.65,0-39.1,17-39.1,40.43s16.08,40.6,39.1,40.6,39.44-16.7,39.44-40.6-16.59-40.43-39.44-40.43M667.21,243.33c-16.27,0-28.07-12.79-28.07-30.4s11.81-30.4,28.07-30.4,28.24,12.79,28.24,30.4-11.87,30.4-28.24,30.4"/>
    <path class="st0" d="M869.65,173c-11.28,0-22.28,5.27-27.98,13.39l-.29.36s-.03.04-.05.07c-.01-.43-.03-.92-.09-1.38-.49-6.45-5.9-11.09-13.16-11.28-.79,0-1.57.03-2.41.08-.93.04-1.94.09-3.08.09-3.45,0-5.51,2.72-5.51,5.35s1.88,5.35,5.51,5.35c1.22,0,1.69-.05,2.09-.1.31-.04.6-.07,1.21-.07,3.56.14,5.15,2.44,5.15,7.45v24.11c0,22.36,0,47.72-.16,64.35,0,2.9-1.19,3.3-2.47,3.3-2.66,0-3.13,0-5.32-.17h-.33c-3.47,0-5.02,2.6-5.02,5.16-.06,1.62.35,2.89,1.22,3.79,1.37,1.42,3.48,1.42,4.17,1.42,2.97-.16,6.86-.16,10.6-.16,5.55,0,11.29,0,15.77.16h.19c3.68,0,5.35-2.77,5.35-5.35s-1.72-5.18-5.18-5.18c-1.25,0-1.81.04-2.37.08-.56.04-1.13.08-2.45.08-2.23,0-3.13-.91-3.13-3.13v-39.57c0-.41,0-.82,0-1.17.21.28.47.6.76.94,6.43,7.87,16.26,12.39,26.97,12.39,22.63,0,38.44-16.49,38.44-40.1s-16.16-40.26-38.44-40.26M869.32,183.03c15.98,0,27.57,12.72,27.57,30.23s-11.59,30.06-27.57,30.06-27.57-12.64-27.57-30.06,11.59-30.23,27.57-30.23"/>
  </g>
  <path class="st0" d="M218.22,15.17c-2.71-7.02-7.37-12.04-13.12-14.12-9.6-3.48-19.88,1.94-25.6,13.5l-85.77,194.12c-2.73,6.17-3.77,11.98-4.49,17.35-.67,4.95-2.07,10.28-3.86,14.62-3.94,9.57-11.28,16.9-20.66,20.64-9.43,3.76-19.8,3.45-29.19-.88-9.4-4.33-16.69-12.16-20.52-22.04-3.81-9.83-3.74-20.52.21-30.1,1.05-2.54,1.95-3.82,4.56-4.69,3.01-1.02,14.18,3.49,20.18,5.9,1.22.49,2.28.92,3.09,1.23,5,1.91,11.22,4.29,13.54,7.66.37.54.73,1.09,1.09,1.64,1.17,1.81,2.39,3.68,4.07,5.08,4.66,3.85,11.57,3.72,16.44-.33,1.87-1.56,3.42-4.8,3.62-7.54.13-1.82-.31-3.35-1.29-4.43-1.35-1.5-3.4-2.21-5.21-2.83-.49-.17-.98-.34-1.43-.52-1.29-.5-2.59-.94-3.9-1.37-1.32-.44-2.69-.9-4.01-1.42l-32.16-12.72c-1.03-.41-2.08-.87-3.14-1.33-4.93-2.17-10.52-4.63-15.98-2.11-5.02,2.32-7.86,7.88-9.97,13.01-5.65,13.72-6.28,28.33-1.72,40.08,4.91,12.68,15.21,23.64,27.55,29.32,5.76,2.65,12.32,3.99,19.52,3.99.39,0,.78,0,1.17-.01,15.13-.3,28.91-7.02,37.82-18.43,2.84-3.65,4.75-7.31,6.81-13.06,1.75-4.9,2.53-9.37,3.28-13.68.58-3.36,1.14-6.54,2.11-9.9,1.74-5.99,4.35-11.76,6.88-17.34.66-1.46,1.32-2.91,1.96-4.36L184.6,31.54c.26-.58.52-1.2.8-1.85,2.55-5.95,6.05-14.1,12.19-14.49,4.08-.25,5.59,3.2,6.17,5.28.32,1.17.37,2.4.42,3.71.06,1.74.13,3.55.91,5.17.78,1.62,2.23,2.81,4.08,3.36,2,.59,4.21.31,5.92-.74,5.36-3.3,5.06-11.82,3.13-16.81"/>
</svg>