<?xml version="1.0" encoding="UTF-8"?>
<svg id="_レイヤー_1" xmlns="http://www.w3.org/2000/svg" version="1.1" viewBox="0 0 32 32">
  <!-- Generator: Adobe Illustrator 30.1.0, SVG Export Plug-In . SVG Version: 2.1.1 Build 136)  -->
  <defs>
    <style>
      .st0 {
        fill: #231815;
      }
    </style>
  </defs>
  <rect width="32" height="32" fill="#ffffff"/>
  <g transform="translate(10.341,7.615) scale(0.77)">
    <path class="st0" d="M13.36,4.11l-3.93,2.09c-.62-1.27-1.39-1.9-2.31-1.9-.44,0-.81.15-1.12.43-.31.29-.46.66-.46,1.11,0,.79.92,1.57,2.75,2.35,2.52,1.09,4.22,2.09,5.1,3,.88.92,1.31,2.15,1.31,3.7,0,1.99-.73,3.65-2.2,4.99-1.42,1.27-3.15,1.9-5.16,1.9-3.46,0-5.9-1.69-7.34-5.06l4.06-1.88c.56.99,1,1.61,1.29,1.88.58.54,1.27.8,2.07.8,1.61,0,2.41-.73,2.41-2.2,0-.85-.62-1.64-1.86-2.37-.48-.24-.96-.47-1.44-.7-.48-.23-.97-.46-1.46-.7-1.38-.68-2.36-1.35-2.92-2.03-.72-.86-1.08-1.97-1.08-3.32,0-1.79.61-3.27,1.84-4.44,1.25-1.17,2.78-1.76,4.57-1.76,2.64,0,4.6,1.36,5.88,4.08v.03Z"/>
  </g>
</svg>
