<?xml version="1.0" encoding="UTF-8"?>
<svg id="_レイヤー_1" data-name="レイヤー_1" xmlns="http://www.w3.org/2000/svg" version="1.1" viewBox="0 0 330.36 26.41">
  <!-- Generator: Adobe Illustrator 30.3.0, SVG Export Plug-In . SVG Version: 2.1.3 Build 182)  -->
  <path d="M330.36,14.53l-.02.31-.12.76-.76.48-.03.71-.24.65-.69.04-.22.41c-.09.02-.31.05-.32.13l-.04.4c-.34-.07-.27.34-.38.46-.31.34-.67.71-.85,1.17-.8.05-.75.52-1.25.86l-.27-.14c-.07-.04-.27.32-.39.27l-.23-.09-.62-.21c-.18-.06-.56.1-.73-.18-.11-.19-.13-.62-.03-.8.09-.15.14-.27.17-.43l.13-.57c.03-.15.15-.46.22-.59l.54-.67c.25-.2.68-.34.59-.79-.04-.17.08-.59.31-.56s.35.07.47.02c.29-.12.2-.31.27-.5l.27-.82c.02-.07.13-.23.2-.21l.31.09.22-.47c.02-.05-.08-.26-.13-.24l-.2.08c-.14.06-.42.21-.57.23l-.74.14c-.01-.1-.05-.41-.14-.39l-.35.06-.66-.19-1.07-.35-.36-.53c-.06-.09-.02-.35-.03-.47-.01-.15-.36-.3-.48-.38-.02-.09-.02-.32-.1-.35l-.24-.1-.15-.82-.16-.81c-.04-.19-.04-.56-.03-.73l.49-.11.04-.57c.11-.03.28-.05.28-.12v-.36c.01-.32.25-.67.49-.9l.04-.75c.4-.13.53-.46.53-.83.49.04.85-.1,1.01-.58.15-.46,1.4-.02,1.26-.53l-.14-.53c.47-.05.84.01,1.18.21l.41.09c.12-.05.4-.12.49-.07l.18.65c.11.41.04.7.22,1.09l-.35.62c-.38.1-.69.22-.97.36l-.07.48c-.48.15-.85.39-1.11.79.02.35-.14.64-.32.92l-.37,1.2c-.09.28.33.5.54.6l.48.43c.32-.06.3-.6.58-.59.09,0,.24.12.32.19l.5.18c.11.25.36.29.61.29.06.16.14.36.24.42.25.13.72-.03.73.08l.03.24c0,.09.1.31.11.31l.27-.24c.05-.04.14.18.19.24l.59.76c-.05.47.12.97.43,1.17Z"/>
  <path d="M245.44,13.49c.05-.23-.14-.35-.31-.47l-.5-.35c-.29-.63-.18-.91-.32-1.35-.12-.37-.29-.73-.53-1.02-.02-.1-.04-.36-.12-.41l-.42-.21c.1-.3.12-.62-.12-.85.13-.46-.24-.85-.68-.98-.27-.21-.21-.59.02-.85-.09-.33-.02-.62.23-.79l-.03-.3c-.03-.25,1.17-.29,1.87.09.11.28.28.48.47.7l.54.63c.23.27.3.54.2.9.36.38.07.92.21,1.01l.33.23.5.74.52.67c.08.19.05.57.03.88l.5.1c-.06.32,0,.72.38.86.32-.18.44-.64.57-1.04.21-.67,1.36-.87.76-1.82-.08-.13.15-.37.22-.5.16-.26.31-.42.56-.56l.4-1.2c.06-.18.34-.48.51-.53l.41.18c.09.04.23-.19.32-.22.13-.04.43-.07.55-.14.26-.16.63-.21.79.08l.43.83-.02.55.59.39c.15.05.46.06.69.07.09.3-.03.56-.16.86-.12.29.36.57.67.42l.5.45-.23.33.55.53c-.03.14-.02.26.06.4.21-.27.33-.5.46-.8l.58-.27.11-.41.35-.47c.62-.15.5-.62.79-.74.03-.04.14-.15.09-.1-.38-.4-.53-1.1-.37-1.53.43.07.63-.03.87-.27.17-.17.21-.3.07-.57l.58-.56c.18-.17.83.1,1-.14.06-.09.08-.32.1-.51l.71-.39c.7.89,1.27.66,1.44.8.29.23-.05.72.35,1.09.07.06.15.3.09.36l-.25.28c-.03.75-.51.97-.46,1.57l-.81.38s-.23.05-.27.05c.04,0,.3.58.08,1.03l-.38.78c-.22.23-.23.3-.29.66s-.32.86-.48,1.19c-.23.09-.46.19-.62.34-.32.3-.4.88-.13,1.08.3.65-.19.95-.13,1.32.04.27-.11.63-.41.5-.16-.07-.57-.26-.66-.03s-.14.57-.41.58l-.27-.16c-.07-.04-.24.07-.34.14l-.66-.05-.07-.48-.81-.37c-.38-.18-.63-.44-1.03-.49-.19-.25-.27-.62-.19-.99l-1.21-.68.31-.42-.25-.28c0-.12-.04-.36-.12-.4-.2,0-.5-.06-.52-.29s-.19-.41-.26-.57l-.3-.74-.43.76c-.12,0-.36.08-.38.18-.02.16-.09.32-.27.38l-.21.6.24.26c.06.06-.13.27-.13.36l-.03,1.45c-.39.07-.82.51-.72.92.42.32-.11.51.15,1.02l.44.85c-.41.27-.61.52-.83.88l-.46.48h-2.31c-.17,0-.47-.2-.59-.31v-.94s-.76-.33-.76-.33c-.07-.03-.19-.18-.2-.25-.05-.27.57-.26.52-.88-.02-.25.05-.39.2-.67-.04-.04-.35-.12-.44-.18l-.48-.3-.37-.76c-.09-.03-.3-.06-.32-.13s0-.29,0-.37l.18-.8Z"/>
  <path d="M8.46,22.65c-.03-.13-.07-.44-.04-.57.06-.25.38-.44.67-.56l-.34-.72c-.12-.25.07-.49.18-.66l.3-.45c-.09-.12-.17-.23-.2-.3s.17-.25.17-.34c.02-.34-.28-.74-.57-.98-.12-.1-.07-.55.08-.62.24-.11.59-.36.5-.64-.08-.25-.12-.44-.11-.75,0-.29-.41-.5-.29-1.47.34-.19.36-.42.37-.76l.02-.79c0-.15-.09-.43-.14-.57l-.02-1.97-.36-.38c.11-.12.24-.23.44-.39l.2-.56c-.31.04-.57.11-.81.22-.06.01-.14-.14-.19-.3l-1.21.43c-.07.02-.22.11-.25.17s0,.21-.03.28c-.16.4-.75.75-1.19.52-.04-.1-.1-.28-.19-.28h-.42c-.15-.02-.36-.04-.45.01s-.19.28-.2.4c-.08.75-1.18.11-1.69.46-.19.13-.33.26-.5.25-.23,0-.4-.11-.57-.24-.03.04-.16.23-.21.2l-.22-.14-.21-.1s-.05-.19,0-.21l.25-.08s-.02-.19-.07-.18l-.28.04c-.13.02-.44.02-.55-.05-.12-.08-.2-.33-.24-.5l-.08-.3c-.04-.16.62-.35.5-.87l.39-.68.38-.07c.02-.17.05-.42.14-.5.11-.1.31-.12.48-.14l.66-.07.72-.08c.35-.54.58-.5,1.2-.46.4-.32.74-.2,1.14,0,.26.13.58-.1.88.32l.15-.59.62-.14.65.18c.2.06.34.06.54-.05.36.09.68.03.88-.3.43.08.82-.11.97-.45.61.11.91-.18.98-.14l.2.11c.07-.24.18-.42.4-.47.29-.07.67.15.9.13.34-.04.63-.15.97-.12.8.05.79-.21,1.21-.55.12-.1.19-.36.28-.64l.93.49c.24.13.55.09.8-.05.22-.12.45.48.56.43l.26-.11.55.13c.19.05.32.1.41.25l.34.6c.12.2.06.72-.02.93-.14.35-.6.29-.85.09l-.34.6c-.07.09-.37-.02-.48-.07l-.5-.22-.49.21c-.12.05-.33.27-.4.38l-.32.52-.68-.31c-.54.08-.64-.43-.76-.38l-.25.1c-.33.13-.44.5-1.46.55-.16.54.03,1.08.44,1.45l-.25.27.21.2c.05.05,0,.26-.04.32l-.48.84c0,.26.04.5.14.62.15.19.36.28.68.27.02.52-.27.99-.15,1.84l.34.39-.14.23c-.04.06.05.19.1.28.19.39.4,1.08.23,1.23l-.07.99c-.63.4,0,1.07-.56,1.33l.3.38.42.44c.06.07.15.25.13.34s-.27.11-.38.14c-.12.31-.34.82-.38,1.13l-.09.73.39.18.29.53-.04,1.07-.33.16-.02.54c-.3.04-.59.24-.7.48.14.11.26.24.22.31l-.22.35c-.12.2-.25.3-.44.44l-.04.56c-.23.02-.56-.02-.79-.05-.19-.02-.61.19-.74-.02l-.21-.34c-.17.48-.73.5-.93.32-.05-.05,0-.28-.06-.32l-.26-.19c-.35-.61-.93-.91-.61-1.76l.58-.27c-.06-.27-.24-.52-.46-.61l-.13-.49ZM.75,10.19s-.03-.08-.08-.08-.08.03-.08.08.03.08.08.08.08-.03.08-.08Z"/>
  <path d="M195.27,10.33c.26-.14.43-.23.59-.12.18.13.21.34.16.57.18.24.26.5.1.75.11.42.11.9.02,1.34l-.17.78-.15.45c-.04.12.19.3.31.42l.08.77c.08.24.15.52.11.74l-.29.15c.38.11.64.62.68.95.03.29-.72.5-.23,1.57l-.15.41c.17.19.23.51.1.7l-.37.52-.76.27c-.29-.31-.59-.34-.92-.09l-.75-.02c-.24,0-.29-.39-.34-.55l-.31-.88c-.47-.17-.65-.6-.62-1.09l.04-.56c0-.06-.08-.23-.14-.25-.07-.03-.16.11-.22.28l-.51.05s-.19-.02-.23-.04-.05-.13-.07-.22c-.21-.15-.57-.06-.78.08l-.67-.2c-.37-.11-.65-.18-1.07-.11l-.55-.18c-.13.3-.58.46-.78.27l-.19-.31c-.19.04-.55.1-.66-.02l-.46-.49c-.04-.39-.19-.62-.58-.78-.42-.18-.38-.78-1.17-.83l-.56-.51c-.33.04-.5-.04-.7-.24-.08-.05-.3-.11-.31-.2,0-.12.03-.35.07-.45l.32-.71c.03-.06.15-.23.11-.28l-.21-.28c-.15-.2-.27-.27-.51-.38s-.29-.65-.26-.91l.07-.77c.02-.16-.1-.52-.04-.65l.65-.35-.54-.33c.16-.32.23-.53.29-.84l.35-.5c.13-.19.3-.37.26-.62l-.13-.73c-.05-.28-.16-.5-.27-.77l-.1-.24c-.07-.17.86-.71,1.75-.63.15.01.27-.32.25-.5-.03-.23.08-.36.2-.53l.43-.56c.09-.05.3-.11.35-.2s.07-.29.09-.44c.25-.04.5-.11.66-.32.3-.38.84-.12.9-.22l.13-.26.79-.03c-.02-.38.01-.61.28-.82l.55.04.06-.33c.01-.07.28-.07.35-.02.23.15.59.24.92.24.23,0,.3.37.25.62l1.92.99c.13-.1.33-.19.43-.13l.79.41-.06.55c-.01.12.27.29.31.41l.2.58c.07.19,0,.6,0,.85-.39.12-.59.37-.67.73l-.38.1c-.14.04-.49.17-.61.07-.2-.16-.45-.4-.56-.57-.15-.28-.24-.41-.54-.46l-.75-.15-.07-.5c-.29.29-.52.36-.85.34-.28.15-.61.33-.93.39l-.85.16c-.15.18-.36.31-.64.24-.14.03-.32.09-.41.14-.27.16.02.64-.35.82-.07.03-.19.09-.17.13l.09.18.12.22-.11.26.14.36c.06.16-.59.34-.53,1.37l-.24.45c-.2.07-.49.26-.55.44-.15.47.05.79.21,1.17l.24.56c.14.32.13.72-.12,1.01l.59.55c.2.19.4.3.6.54l.19-.13c.05-.03.11.13.14.2l.08.23c.02.06.22-.06.28-.03,0,0,.43.22.43.22.47.3.8.81,1.3,1.05.07.04.15.07.23.05.09-.01.17-.09.26-.07.11.01.19.14.3.13.53-.04,1.03-.85,1.54-.33l.6-.63.04-.7c.31-.13.41-.52.25-.78-.14-.23-.56-.37-.79-.11h-.59s-.1-.28-.1-.28c-.02-.06-.21-.07-.31-.07-.07,0-.16-.19-.13-.26.02-.07.11-.11.24-.2.1-.08.24-.32.29-.47.11-.3.48-.43.77-.62l.45-.3.72-.14.7-.2.34.29c.2.16.53-.22,1.03-.14l.08.49Z"/>
  <path d="M312.88,14.14c.09.25-.12.52-.42.56l-.06.58-.91.46c-.23.12-.46-.08-.61-.18l-.6-.37c-.6-.37-.81.15-1.49,0-.09-.56-.78-.4-1.06-1.35l.31-.32c-.38-.21-.81-.2-1.11,0l-.3.19c-.08.05-.22-.17-.24-.29l-.77-.28-.1-.49-.21.32c-.16.25-.57.36-.88.43.53.37.08.77.27,1.04.13.18.26.58.05.7-.87.03.1.45-.4,1.16l-.03.65c-.44-.03-.54.1-.7.4-.13.23-.62.23-.83.3-.29.09-.39.12-.68,0-.74-.32-.09-.74-.7-1.48l-.48-.09c.26-1.2-.6-1.12-.78-1.95-.07-.34.16-.45.42-.58.34-.57-.4-1.08-.24-1.45l.39-.87.12-.23c.03-.05-.19-.17-.19-.23v-1.22c.19-.34.2-.54.08-.91l-.41-1.25c-.04-.11.05-.4-.06-.46-.11-.05-.28-.13-.34-.19s-.03-.31.02-.4c.32-.53.75-.47.92-.88.04-.09-.17-.25-.21-.34l-.39-.87c-.06-.17-.01-.58,0-.72l.3-.2c.07-.04.03-.29-.02-.33l-.24-.13c-.2-.11.31-.65.12-.97-.17-.28-.18-.55.05-.79l.59-.6c.07-.07.39-.01.43-.1l.17-.35c.29-.22.47.1.67.28s.61.33.76.53l.34.47c.12.16.26.3.27.48s-.11.34-.29.55c.38.12.82.49.7.9-.1.37-.48.65-.75.89l-.15.43.58.62.17.55c.03.1.05.39-.03.46s-.23.15-.4.23c-.02.03-.1.17-.06.11l.32.1c.06.02,0,.29.04.33.12.12.44.27.63.33v-.67s.59-.06.59-.06l.31-.46c.16-.24.36-.39.62-.56.16-.1.4-.36.61-.16l.49.47.23-.53.02-1.15h1.26c.26.01.63-.2.9-.28.21-.06.32-.15.4-.33l.3-.05c.08-.01.14-.16.21-.23l.35-.39c.08-.09.35,0,.45.15.25.37.93-.07,1.07.52.06.25-.18.47-.46.5l.18.68c.03.12.18.41.09.51l-.45.5c.44.7-.21.75-.43,1.37l-.61.04-.75.75-1.16.02-.24.65.19.34c-.3.36-.25.65-.08.98.15.31.3.48.66.52l.49.23c.02.32.19.39.47.44l.63.3c.06.03.27,0,.31.03.05.05.08.15.13.32l.76.04c-.02.38.12.64.44.85l.05.65c.13.27.21.39-.02.69l.41.11Z"/>
  <path d="M42.81,9.55l.16-.6-.15-.56c-.28-.11-.41-.61-.21-.8.31-.04.52-.11.64-.42l.4-.36c.13-.12.23-.27.34-.46l.76-.13.15.37.42-.46.21-.2c.06-.06.29.05.29.14,0,.18.11.33.3.46.11.07-.11.32-.24.44-.16.16.04.72.26.76l.52.1c-.02.32.12.56.25.69.07.07.14.36.07.42l-.31.22.15.41c.03.09-.25.19-.35.22.04.07.15.28.15.38l-.05,1.55c.23.3.2.66,0,.93l.09.63.05.63c.02.21.07.3.33.37l-.12.32c.02.09.14.3.11.39s-.16.2-.3.34l.2.62c.15.09.31.16.37.25.32.43-.61.96.23,1.22.18.36.42.72.86.85.4.12.21.82.95.73l.35-.04c.09-.01.09-.26.14-.34.08-.14.27-.43.18-.55s-.26-.29-.23-.39.22-.25.32-.29l.28-.12c.13-.06-.31-.39-.4-.66l.36-.2c.17-.09-.22-.62-.17-.67l.27-.32c-.3-.17-.52-.52-.35-.8.09-.04.29-.08.3-.16l.07-.41c.04-.22.35-.67,0-.84l-.29-.14c-.06-.03-.09-.24-.03-.27l.28-.12c.06-.03-.01-.23-.06-.29-.31-.38.26-.54.29-.79,0-.09-.1-.3-.11-.4l-.14-.93-.13-.31c-.03-.08.13-.14.33-.16.18-.51-.12-.92.22-1.33l-.69-.07c0-.2-.03-.58.03-.74l.22-.56.29-.44c.06-.09-.26-.25-.4-.29.3-.57,1.29-.95,1.39-.75.17.33.47.5.86.4.16.14.4.35.49.51l.38.62-.1.84c-.03.21-.08.45-.15.62.16.15.27.37.32.62.09.08.24.2.28.3.09.25-.39.5-.34.6l.16.31c-.54.77.55,1.13-.07,1.85-.14.16-.05.27-.04.48l.04,1.13c0,.1.12.37.22.37h.5s-.45.95-.45.95c-.43.06-.3.49-.15,1.03-.17.22-.25.46-.35.7l-.11.27c-.02.06.15.15.21.18l.27.47c-.11.34-.41.54-.75.55l-.1.32c-.02.07-.2.12-.26.16-.18.71-.71,1.29-1.23,1.82l.16.23c.04.05-.1.15-.16.21l-.41.37-.29.06c-.08.02-.11.13-.18.3l-.67-.06c-.29-.03-.44.19-.56.43l-.52.42c-.14.11-.93-.1-1.04-.29l-.16-.28c-.04-.07-.3.11-.37.08l-.74-.39c-.2-.11-.32-.2-.52-.29l-.79-.33c-.03-.14-.1-.43-.09-.4l-.39.27c-.08.06-.28-.13-.31-.22-.18-.5-.56-.37-.7-.68-.12-.28.59-.34.48-.85l.15-.3c-.24-.07-.42-.12-.54-.19-.23-.15.08-.48-.18-.92-.23-.39.04-.75.49-.95-.15-.17-.34-.27-.53-.36-.38-.18-.31-.66-.32-1.01s.05-.65.22-.94l-.35-.45.34-.67-.79-.38v-1.82s.39-.71.39-.71c-.33-.35-.23-.61-.11-1.03Z"/>
  <path d="M73.68,20.35c-.28.12-.43.2-.57.38l-.74.16c-.35.08-.97.08-1.3,0-.35-.15-.46-.14-.77-.03-.42.15-.8.24-1.1.66-.07.1-.28.24-.4.25-.15.01-.35-.13-.5-.26l-.17.24c-.52-.21-.69.37-1.01.32-.24-.04-.19-.73-.64-1.28v-.52s-.88-.85-.88-.85l-.59-.29c-.03-.33-.1-.48-.26-.7l-.37-.51-.05-.63-.17-.57-.25.15c-.18.11-.32-.54-.77-.84l-.19-.67.18-.4-.53-.15v-.64c.38-.25.32-.67.44-1.01l.13-.37c.03-.1-.2-.23-.28-.28l-.37-.52c-.07-.1.15-.3.29-.39l.16-.49.05-.75.14-.29c.06-.13-.3-.22-.34-.54-.01-.09.22-.19.28-.26l.32-.37c.48-.55.79-.48.85-.8-.27-.15-.39-.56-.16-.69.17-.09.5-.2.38-.45-.12-.26-.15-.45-.04-.7l.34-.78.1-.39c.81.06.94-.55,1.67-.21-.13-.43,0-.71.37-.82l.39-.29.81-.05c.1,0,.3-.15.38-.13s.21.12.3.21l.6.62c1.15.08,1.62.74,2.14,1.63l.45.78-.53.29.26.2c.05.04.02.22-.04.24l-.81.22-.24.38c-.06.09-.39.05-.5.07-.32.14-.72.35-1.09,0l-.09.68c-.11.18-.19.35-.28.54l-.37.44c-.08.1-.42.19-.46.32l-.2.65c-.08.25-.11.47-.28.62-.04.04-.17.18-.13.2l.25.11.32.11c.17.06-.09.48-.08,1.19v1.11c.01.2-.25.54-.3.8-.02.13.3.22.45.25.16.03.49.31.49.48v1.12c.41.18.78-.14,1.33.21l.51.05c.21.09.31.06.51.03,1.17-.15.51-1.04,1.39-1.04l.56-.36c.03-.46.48-.79.88-.85l.56.18c.08.11.21.27.33.37l.13.41c.33.05.45.27.42.61-.01.17-.07.29-.25.43.17.07.32.49.18.64-.06.06-.29.11-.31.19-.01.1.11.29.19.4-.1.2-.32.56-.34.77l-.03.31c0,.07-.23.04-.31.06l-.38.09c-.34.08.26.85-.01.96ZM67.2,20.65c-.04-.18-.28-.2-.31-.02l.31.02Z"/>
  <path d="M86.27,13.68s0,.1,0,.14l-.53.15c-.07.02-.25.1-.29.04l-.18-.34c-.27.25-.41.37-.82.39-.12.38.39.63.34.75l-.11.29c-.19.5.09,1.01.48,1.32.1.08.17.35.16.47,0,.13-.2.3-.31.42l.16.59-.54.11.17.36c.04.09-.2.21-.27.3l-.31.41c-.06.08-.29.19-.4.18-.24-.03-.6-.54-.79-.33-.06.07-.06.19-.08.43,0,0-.65.03-.65.03-.02-.18.05-.41,0-.57-.11-.31-.73.04-.88-.6l-.15-.66-.17-.62c-.14-.13-.37-.49-.22-.62.05-.05.22-.1.27-.13.17-.09-.16-.56.17-1l.37-.5c-.2-.39-.68-.34-.77-.64-.03-.1.08-.28.18-.42-.45-.51.08-1.48.01-1.44l.25-.15c.3-.18-.31-.82-.03-1.34l.47-.18s-.41-.6-.41-.6c-.18-.02-.42-.01-.31-.28.07-.18.28-.18.34-.34.04-.1-.04-.27-.1-.4l-.11-.45c-.05-.19-.11-.44-.1-.58.34-.02.45-.25.47-.47-.38.02-.48-.08-.5-.32-.02-.28.12-.42.43-.47-.1-.19-.2-.41-.21-.5.3-.07.48-.11.63-.25.17-.16.23-.41.23-.7,0-.11.33-.18.39-.09.12.65.82.35.75,1.2l.39.47.25.42c-.5.16-.53.54-.56.93-.03.31-.08.32,0,.59.03.1.14.13.17.21.05.11-.07.2-.05.32.13.04.18.03.31-.02.16.3.29.74.18,1.02-.21.56-.23,1.26.13,1.67l.26-.24c.05-.05.23.08.28.11.44-.24.54.06.85,0,.34-.07.09-.7.29-.69h.94c.09,0,.28-.17.35-.12l.4.27.08-.39c.24-.22.39-.41.55-.73.07-.13.41-.16.53-.11l-.04.17s.02.13.06.12c.05,0,.17-.08.19-.12l.2-.39c-.3-.35-.23-.73-.08-1.11l.2-.48-.29-.13c-.02-.32-.07-.57-.17-.85l.21-.61.29-.22-.49-.17-.03-.33c0-.07-.21-.09-.29-.12-.08-.03.04-.28.13-.3.26-.06.4-.22.38-.45s-.11-.34-.41-.46l.33-.42.31-.36.94-.03.03-.65c.29-.03.5.03.75.12l.35.11.03.37c0,.09.28.07.42.06l.06.59c.21.18.32.36.31.59,0,.29-.07.47-.36.71l.37.88-.67.66c-.04.41-.09.93-.06,1.34.12.25.13.36.02.62-.05.21.23.59.42.75v.66c.21.27.18.43.01.72l-.27.47s-.17.1-.21.12c-.06.03.09.17.15.2l.45.27-.02,1.35.66.68c-.06.46.36.54.34.81-.02.3-.4.42-.55.77l.35.19c.15.08-.55.75-.25,1.51l.33-.27c.07-.05.31.16.28.24-.3.78-.8,1.05-.72,1.64l-.75.48-.32.97c-.02.06-.12.19-.16.22-.06.04-.19-.03-.28-.06l-.87-.31c-.37-.13-.63-.31-1.06-.34l-.03-.87c-.29-.29-.51-.56-.66-.92l.4-.26-.05-1.18c0-.19-.21-.52-.32-.77l.4-.26c-.12-.1-.24-.59-.08-.69.37-.08.37-.71.19-.95-.07-.1-.32-.15-.46-.15h-1.02c-.26-.37-.66-.08-.67-.15l-.03-.21-.11-.47c.06.25-.4.21.04.5"/>
  <path d="M122.36,20.74c-.32-.09-.49.3-.66.37l-.98.42c-.06.02-.22.04-.24-.01l-.11-.27c-.08-.19-.57-.28-.7-.43l-.46-.63c-.13-.18-.21-.26-.43-.4-.02-.08,0-.39.05-.52l.31-.81.5-.17-.63-.25-.17-.6-.03-.72c-.13-.25-.21-.52-.08-.76.11-.2.44-.25.7-.25-.2-.44.26-.72.07-1.03-.06-.1-.22-.16-.42-.25-.01-.1.02-.36.05-.56.06-.42-.89-.86-.37-1.57l-.19-.46c-.04-.11.21-.29.25-.41l.23-.58c-.21-.49-.22-1.09.04-1.54-.11-.73.52-.85-.14-1.19-.02-.08-.03-.32-.1-.35l-.33-.13c-.09-.04-.12-.27-.19-.33-.08-.07-.29-.11-.45-.15-.18-.14-.37-.64-.24-.85.24-.41.69-.38,1.09-.4l.92-.48,1-.52c.32.09.58.09.8-.19.32-.4.56.28.9.22.12-.02.23-.25.29-.44,1.18.38,1.75-.45,2.17.47.18.4,1.06.86,1.63,1.04.29.09.53.33.64.64.13.35.6.08.84.37.1.11.1.33.07.54l.13.5c.02.55.09.93.47,1.18.16.1-.02.5-.09.65.07.26.19.74.37.86l.91.62-.38.66c.02.93-.88,1.02-.31,1.56-.35.24-.41.51-.37.91l-.2.61-.4.22c.18.36.11.64-.23.84l.15.33-.22.48c-.29.06-.47-.1-.69-.37-.3.88-1.12.65-.72,1.05l-.46.49c-.14.21-.29.59-.6.59-.36,0-.84,0-.99.38s-.34.54-.65.75c-.25.16-.43.21-.79.22h-.27c-.08,0-.09.24-.09.31v.23s-.17.1-.21.09ZM124.5,14.91l.4-.9.37-.84c.18-.4-.25-.26-.26-.77-.01-.41.14-.73.43-1,.21-.19-.24-.71-.78-.9l.25-.66.48-.51c-.19-.65-.89-.37-.92-1.44l-.82-.32c-.1-.1-.24-.35-.37-.32l-.55.14c-.43.11-.72-.18-1.08-.44-.11-.07-.31.23-.35.36l-.18.51.44.96c.03.07.02.31-.04.35l-.27.16c-.06.27-.19.52-.32.8-.16.32.24.76.49.98.09.08.08.38,0,.44l-.46.31.61.25c.15.14.06.64-.03.83-.03.06.05.31.12.3l.28-.03c.09.12-.06.39-.2.49l.08,1.39.15,1.19c0,.06.1.23.14.19l.12-.13c.13-.15.29-.19.53-.09l1.08-.93.67-.36Z"/>
  <path d="M30.9,21.4c-.07.14-.37-.24-.94-.2-.19.01-.39-.05-.53-.13-.07.11-.19.31-.29.3-.12,0-.39-.05-.45-.07.02-.23.03-.56-.09-.64-.14-.09-.36-.17-.4-.28-.05-.16.01-.46.14-.49l.5-.13-.46-.32v-.65s-.82-.39-.82-.39c-.29-.14-.41-.4-.24-.69.07-.12.1-.39.07-.46l-.29.14c-.06.03-.22-.11-.21-.19l.09-.86c-.42-.36.07-.77-.37-1.55l.16-.25c.04-.06-.13-.18-.16-.25l-.31-.63.31-.54.32-.45c.07-.1.41-.18.38-.3l-.11-.37c-.02-.08.12-.22.19-.31-.03-.32,0-.67.12-.96.03-.08-.02-.32.04-.35l.3-.14c-.12-.67.2-.72.19-1.05-.03-.59.53-.47.49-.68l-.05-.33-.42.02-.04-.6s.63-.28.63-.28c.15.12.4.17.57.07.09-.06.19-.17.18-.29s-.17,0-.19-.09c-.1-.27-.01-.71-.01-1,.31-.32.7-.47,1.12-.53l.59-.08c.16-.02.4-.24.62-.16.15.06.3.34.42.45l.55.26h.58s.39.6.39.6l.06.75c.53-.02.74.31.84.77.04.19.37.38.58.5l-.14.46-.07.65c-.06.09-.19.29-.13.37s.26.24.3.23l.06-.28s.19-.07.21-.03l.25.52-.24.18s.17.15.17.2c.06.55.43.66.35.74l-.19.17c-.04.3.18.67.33.95-.1.2-.18.45-.16.71.02.24-.26.42-.5.46.07.13.18.37.19.46-.14.14-.25.32-.2.42.06.11.26.24.38.26l.27.05c.07.01.02.24-.01.23h-.34c-.08.01-.14.2-.19.29-.06.03-.24.06-.25.13l-.04.32-.34.17c-.08.04-.29.62-.18.91l.18.48.03.97-.65.05-.04.37v.91s-.44.04-.44.04c-.08,0-.1.24-.13.28l-.3.1c-.08.03.12.5,0,.54-.06.02-.18.04-.24.03h-.29c-.08-.02-.13.18-.19.24l-.36.38c-.16.08-.56-.11-.69-.26l-.19-.23s-.16.13-.19.19l-.08.17ZM31.73,16.82c-.05-.18-.06-.36.05-.44.53-.42.1-.72.39-1.07.19-.03.37-.06.47-.1s.19-.39.07-.71c-.02-.05-.16-.02-.16,0l-.04.33c0,.06-.21,0-.24-.06s-.02-.2.03-.24l.36-.22c-.42-.33-.13-.62-.09-.91l.14-.95c-.34-.24-.5-.65-.27-1.03l-.38-.69c-.11-.2-.23-.39-.29-.62-.59-.23-1.21.09-1.61.61.03.15.2.45.3.53.19-.07.34-.12.42-.07.26.16-.17.54-.16.94l-.4.33c-.07.06-.45.35-.45.36-.09.24.22.3.22.34,0,.19-.01.39-.02.58-.09.06-.29.16-.31.25s.04.24.09.34l.24.49c.47.52-.46.99.29,1.36.11.05.21.58.26.71.04.11.53.19.2.45.15.15.33.28.5.42l.58-.61c-.07-.09-.13-.21-.17-.34ZM35.29,11.67c-.08-.13-.23-.26-.39-.33-.08.04-.05.31.03.39.07.06.34.02.36-.06Z"/>
  <path d="M290.98,14.77c-.14-.22-.39-.36-.64-.45l-.3-.81-.53.21.02.83.28-.08s.05.19.03.23l-.22.54-.1.26c-.05.13.37.32.36.55,0,.11-.13.29-.2.4l-.44.65c-.14.2-.19.34-.28.63-.08.03-.4.03-.52-.02l-.28-.12c-.08-.03-.15.18-.18.31l-.52.02c-.17-.63-1.06-.34-.89-1.15l-.26-.63-.02-.97c-.22-.04-.41-.08-.52-.16s-.23-.38-.12-.46l.24-.17c.05-.04-.07-.23-.06-.29l.21-.58.45-.93-.48-.53-.07-.79c-.07-.22-.11-.43-.11-.67l-.28-.18c-.15-.09.08-.68-.2-1.33.52-.73.09-1.12.63-1.45-.02-.12-.23-.25-.4-.32-.15-.2-.09-.64.05-.86l-.25-.82c-.07-.22.35-.46.55-.42.62.11.35-.72.54-.94.06-.07.34-.1.36-.19l.11-.5.83.23.75.31c.43-.3.91-.24,1.29-.04.24-.09.58-.13.82-.09.03.11.04.22.08.24l.29.12c.17.07.36.15.58.19.16.36.46.72.85.88l.29.48.1.3.47,1.02-.32.24c-.06.05-.02.29.05.33.11.05.26.17.26.25,0,.14-.14.24-.33.29l-.03.58-.19.53-.12.25c-.15.3.72.5.34,1.22h-.65s-.22.62-.22.62l.65.23.78.05c.02.12,0,.36.08.41l.33.21c.11.27.29.42.51.59.27.2.49.45.84.45.01.23.09.46.24.6l.42.41c.1.09-.05.39-.08.54-.06.31-.11.57-.37.77l-.62.47-.25.19c-.06.04-.22-.03-.37-.11l-.49.47h-.78s-.49-.48-.49-.48c-.14-.38-.43-.64-.83-.78-.09-.37-.33-.63-.66-.77ZM289.8,7.55l.03-1.18-.35-.13c-.29-.11-.72-.15-.98-.09l.2.77.3.72c-.31.2-.49.56-.29.94.4.03.39-.58,1.09-1.03Z"/>
  <path d="M159.12,19.37c-.34.06-.69.15-.84.51l-1.9.03c-.22,0-.53.33-1.24-.45-.18-.2-.77-.29-.75-.73l.25-.56c.16-.36.35-.65.24-1.07l.37-.64.78-.06.7-.17.65-.16c.13-.19.21-.57.23-.83l.42-.48c-.26-.53-.75-.17-.73-.94,0-.27-.4-.43-.59-.56l-.63-.41c-.3-.19-.28-.5-.99-.64l-.61-.12c-.62-.62.13-1.48-.82-1.49-.32-.23-.05-.68.02-.95l.16-.62-.11-.29c-.03-.08.11-.26.14-.34l-.15-.36c-.04-.1.14-.24.24-.36.25-.29-.24-.67.6-1.56.06-.06-.07-.28-.14-.37-.12-.16.07-.43.26-.49l.91-.31.67-.17c.48-.12.96-.17,1.21-.7h1.23s.43-.72.43-.72c.26-.19.88-.04,1.04.26.05.1.18.33.16.3l.15-.31c.03-.05.18.03.19.09l.14.78-.16.62c-.07.3-.31.64-.1.96.09.13.15.33.12.48l-.78.07-.6.43c-.06.04-.23.08-.3.06s-.13-.15-.17-.23l-.11-.22c-.12-.24-.14.42-.4.65-.27.25-.44.48-.64.77l-.19.28c-.04.06.19.18.27.21.1.09.1.48-.03.56l-.44.25.31.25c.1.51.46.28.74.48.07.05.12.28.1.38-.11.39.19.6.39.87.1.13.2.53.37.52.88-.05,1.21.15,1.27-.31.41-.16.87.07.97.52.34.27.55.63.61,1.06l-.28.52c-.29.02-.48.26-.44.62.03.26.3.72.56.87.18.1.46.14.4.4l-.17.69c-.18.23-.63.57-.55.92.13.12.38.43.23.55-.18.14-.23.21-.37.37l-.67.72c-.81-.19-.92.68-1.21.43-.07-.06-.24-.18-.27-.13l-.16.28Z"/>
  <path d="M207.34,16.15c-.69.23-.48.86-.91,1.38-.43.08-.35-.35-.83-.35h-.29c-.2,0,.14-.88-.35-1.62l.04-1.12.18-1.16c.09-.25.15-.55.14-.85.24-.37.43-.7.33-1.19-.07-.33.45-.41.25-.69-.05-.08-.15-.26-.09-.29l.27-.15.42-.73c.41-.03.63-.14.99-.28.39-.16.94-.12,1.38-.09.19.55.61.84,1.12,1l.24.43c.1.49.26.93.73,1.17.29.14.5.43.67.7l.31.5.33-.15c.15-.07.29.22.54.35.18.09.29-.67.58-.63l.36.26-.26-.63c-.15.02-.4-.1-.4-.21,0-.27.24-.57.39-.74.17-.18-.04-.67.32-.81.3-.12.62.31.78.18.26-.22.49-.68.19-1.03-.11-.13-.18-.33-.25-.51-.14-.39-.13-.68,0-1.07l.27-.79c.16-.02.39-.06.48-.13.1-.08.15-.35.17-.52.21-.11.53-.02.76.13.41.29.91.08,1.02.41.03.11-.04.3-.11.45l.71.38c.15.08.34.33.47.47.16.18.02.54-.1.72.17.32.21.6,0,.94l-.06,1.07-.52.52c.07.09.19.22.17.29-.09.28-.38.46-.37.69,0,.11.23.27.32.35-.02.32.04.68.15.96.18.46-.27.63-.58.82-.33.2-.62.54-.9.81v.37c-.56.19-.71.42-.71.97l-.34.56-1.56.03c-.08,0-.26.18-.32.14l-.31-.19c-.33-.21-.58-.5-.57-.97l-.97-.02c-.58-.01-.98-.25-.93-.47.02-.12.16-.3.3-.47-.39-.03-.75-.15-1.07-.35l-.46.17-.21-.5-.36-.87c.04-.49-.1-.91-.63-1.05l-.32-.35-.39.4s-.09.24-.04.26l.27.13c.2.09-.02.54-.09.73-.1.24-.13.46-.43.53-.12.03-.3.25-.29.4l.7.3-.38.99Z"/>
  <path d="M143.5,16.39l.62.24c.07.03.2.15.22.22.06.21-.39.41-.31.51.04.05.16.14.22.17l.25.09c.13.05-.28.54-.38,1.05l-.5.08c-.51.35-.9-.24-1.57-.02l.16.28s-.04.2-.09.18l-.31-.15-.64.3c-.17-.12-.34-.2-.44-.19-.33.04-.1.63-.33.64-.45.02-.34-.28-.85-.35-.1-.02-.32-.16-.35-.26s.06-.29.1-.42l-.2-.18s.03-.19.04-.22l-.29-.08c-.06-.02-.11-.17-.14-.24-.17-.05-.41-.12-.52-.21-.11-.1-.15-.42-.12-.55l.07-.29c.02-.07-.15-.18-.2-.25l-.02-1.08c0-.25-.08-.35.03-.59.05-.1.15-.37.08-.44l-.31-.3c-.02-.12-.05-.43,0-.56l.3-.99c.04-.13,0-.79.34-1.32-.17-.12-.47-.47-.47-.69.11-.2.17-.42.14-.52l-.36-.09c-.12-.03-.3-.99.44-1.46-.3-.19-.62-.29-.98-.25-.61.07-.37-.44-.87-.59v-.81c.14-.09.43-.07.6-.03.04-.04.13-.12.13-.12s-.12-.05-.15-.06l-.23-.09c-.05-.02.05-.24.1-.25.17-.03.55.07.69.13.2-.18.4-.26.66-.3l.72-.14c.14-.03.41-.16.52-.09.18.13.31.1.52.16l.88.23c.14.04.45-.2.58-.26.58.22.9-.45,1.04-.27l.18.23c.12.1.47.03.66-.06l.36.06c.25-.17.46-.07.73-.04.34.05.8,0,1.36.45.14.11.06.49,0,.64l-.35.95c-.3.29-.51.47-.69.85l-.53-.1-.53.23-.57-.19c-.11-.13-.25-.31-.38-.38-.18-.09-.54-.09-.66.04l-.46.46c-.39.22-.63-.19-.9-.16-.12.02-.32.21-.36.29.37.35-.03.5.43,1.02.12.14.04.52-.03.72l.25.73,1.01-.55c.24.24.63.56.96.47l.65-.16c.38-.1.75-.17,1.14-.1.07.34-.15.63-.09.94.05.23.25.33.13.6-.18.39-.85.47-1.21.55-.15.04-.33.07-.41.15l-.22.18c-.05.04-.13-.21-.19-.26-.21-.16-.74-.1-.96.07l-.44-.26-.6.14.27.46c.18.05.39.15.4.27.05.4-.51.22-.51.64v1.06c-.01.15.07.53.29.47.11-.03.22-.24.29-.42l.73.2c.13.23.36.4.57.27.31-.18.53-.15.89,0Z"/>
  <path d="M277.09,17.06l-.84.35c-.08.03-.34.11-.35.03l-.09-.44-.65.14c-.5-.49-1.09.33-2.07.12l-.11-.52-.72-.42c-.23-.13-.54-.48-.71-.72-.39-.54-.44-1.24-.42-1.87.22-.27.22-.58.19-.93.39-.76-.18-1.01.55-1.4.43-.23-.29-.89-.22-1.37.13-.05.4-.06.42-.17l.09-.47.37-.14c.19-.07-.41-.66-.2-.83s.57-.03.75.08c.53-.51,1.16-.92,1.82-.77l.36.77c.31-.37.59-.3.97-.28s.8.04,1.05.31l.06.37c.28-.23.53-.22.75-.05l-.13.48.75.53c.02.28.06.63.15.91l.15.47.29,1.19c-.09.19-.17.45-.19.67l-.15.52c-.41.31-.25.73-.53,1.34-.42.61-1.37.53-1.02,1.18.22.4-.28.36-.29.93ZM275.69,13.53c.64-.23.26-.68.54-.91.12-.09.27-.33.22-.44-.12-.28-.85-.68-1.2-.3l-.26-.15c-.67.64.03,1.33-.16,1.4l-.32.11-.07.68.9.02c.11,0,.25-.34.34-.41Z"/>
  <path d="M172.88,17.81c-.17.05-.12.56-.45.61-.19.03-.13-.53-1.1-.52-.16-.5-.62-.58-.59-1,.01-.2.17-.36.38-.55l-.15-.42-.05-.46c-.01-.12-.26-.17-.42-.21l-.03-.63c-.2-.33-.21-.64.02-.97l.05-.55.43-.94c.04-.08.21-.23.22-.31.03-.29-.54-.35-.67-.59-.05-.1,0-.37.08-.46l.48-.6-.29-.58c-.11-.22-.07-.39.06-.61l.03-.56.4-.32c.14-.11.36-.3.52-.37.33-.15.7.1.91.33.41.46.85.31,1.09.6.07.09.04.38-.02.48-.18.24-.15.5-.06.78l.2.6.05.86c.02.3.16.49-.04.75l-.04.61c-.3.27-.52.55-.67.9l.32.61c.08.04.27.07.29.14l.1.34c.02.07.44.53.45,1.19l-.59.35.11.92c.01.11-.05.37-.12.45-.2.22-.56.07-.9.17Z"/>
  <path d="M7.76,9.88l.09.26c.02.06-.15.16-.19.11l-.15-.21c-.06-.08-.16-.35-.08-.41.12-.09.28.11.33.26Z"/>
  <path d="M8.64,9.66c.1.11-.03.28-.14.28-.17,0-.29-.1-.24-.29.06-.04.33-.06.39,0Z"/>
  <path d="M49.36,18.8c-.09-.03-.22-.08-.23-.12,0-.06.11-.17.16-.16.07,0,.19.07.23.1s-.11.2-.17.19Z"/>
  <path d="M49.75,18.45c-.08,0-.22,0-.27-.03-.05-.04.03-.24.1-.23l.24.04s-.02.21-.07.22Z"/>
  <path d="M49.64,17.47l-.32-.04c-.06,0,0-.21.06-.21h.23c.06,0,.08.26.03.25Z"/>
</svg>